<svg width="468" height="105" viewBox="0 0 468 105" fill="none" xmlns="http://www.w3.org/2000/svg">
<path d="M24.1203 0C26.4603 0 28.3803 0.59 29.8803 1.75C31.3803 2.92 31.9003 4.81 31.4403 7.42L18.2603 82.18H57.4003C59.4703 82.18 60.8703 82.9 61.6103 84.34C62.3403 85.78 62.5403 87.49 62.1903 89.47C61.8403 91.45 61.0403 93.16 59.8003 94.6C58.5503 96.04 56.9003 96.76 54.8303 96.76H9.89027C5.57027 96.76 2.72027 95.95 1.34027 94.33C-0.0397278 92.71 -0.349728 89.79 0.390272 85.56L14.1703 7.42C14.6303 4.81 15.8203 2.92 17.7303 1.75C19.6503 0.59 21.7703 0 24.1203 0Z" fill="black"/>
<path d="M148.12 0.810039C150.19 0.810039 151.57 1.51004 152.27 2.90004C152.97 4.30004 153.14 5.98004 152.79 7.96004C152.46 9.85004 151.69 11.52 150.49 12.95C149.29 14.39 147.66 15.11 145.59 15.11H105.24L100.74 40.61H119.52C121.5 40.61 122.84 41.31 123.54 42.7C124.24 44.1 124.42 45.74 124.09 47.62C123.76 49.51 123 51.15 121.81 52.55C120.62 53.95 119.03 54.64 117.06 54.64H98.2801L93.3801 82.44H134.67C136.74 82.44 138.12 83.16 138.81 84.6C139.5 86.04 139.68 87.7 139.35 89.59C139 91.57 138.23 93.26 137.04 94.65C135.85 96.04 134.22 96.74 132.15 96.74H85.1901C80.8701 96.74 78.0201 95.93 76.6401 94.31C75.2601 92.69 74.9501 89.77 75.6901 85.54L88.6601 11.99C89.4101 7.76004 90.7501 4.84004 92.7001 3.22004C94.6501 1.60004 97.7801 0.790039 102.1 0.790039H148.12V0.810039Z" fill="black"/>
<path d="M186.27 56.14L178.62 70.45L166.76 92.58C165.31 95.19 163.53 96.74 161.42 97.24C159.31 97.73 157.24 97.62 155.2 96.9C153.17 96.18 151.81 94.97 151.12 93.26C150.43 91.55 150.8 89.44 152.24 86.92L196.52 7.98002C198.24 4.83002 200.08 2.72002 202.02 1.64002C203.96 0.560019 206.06 0.0200195 208.31 0.0200195C210.65 0.0200195 212.58 0.560019 214.1 1.64002C215.62 2.72002 216.73 4.83002 217.43 7.98002L234 86.23C234.53 88.84 234.13 91.09 232.81 92.98C231.49 94.87 229.64 96.17 227.26 96.89C224.88 97.61 222.64 97.7 220.53 97.16C218.42 96.62 217.13 94.91 216.64 92.03L212.62 70.44L210.01 56.13L186.27 56.14ZM210.02 56.14L206.45 36.57C205.83 33.42 205.39 30.72 205.11 28.47C204.83 26.22 204.54 23.93 204.23 21.59C203.03 24.29 201.91 26.7 200.87 28.81C199.82 30.93 198.49 33.51 196.87 36.57L186.27 56.14" fill="black"/>
<path d="M422.48 0C424.55 0 426.29 0.56 427.72 1.69C429.14 2.82 429.64 4.59 429.21 7.02L415.31 85.83C414.56 90.06 413.22 92.98 411.27 94.6C409.32 96.22 406.19 97.03 401.87 97.03C400.25 97.03 398.83 96.9 397.62 96.62C396.41 96.35 395.3 95.74 394.3 94.8C393.3 93.86 392.32 92.48 391.38 90.68C390.44 88.88 389.38 86.45 388.21 83.39L370.75 37.78C369.83 35.35 369.04 32.92 368.39 30.49C367.74 28.06 367.28 25.32 367.01 22.26L354.97 90.54C354.54 92.97 353.42 94.75 351.6 95.87C349.78 96.99 347.84 97.56 345.77 97.56C343.7 97.56 341.96 97 340.53 95.87C339.11 94.75 338.61 92.97 339.04 90.54L352.94 11.73C353.69 7.5 355.03 4.58 356.98 2.96C358.93 1.34 362.06 0.53 366.38 0.53C368 0.53 369.41 0.66 370.63 0.93C371.84 1.2 372.95 1.81 373.95 2.75C374.95 3.69 375.92 5.07 376.87 6.87C377.81 8.67 378.87 11.1 380.04 14.16L397.5 59.77C398.42 62.2 399.21 64.63 399.86 67.06C400.51 69.49 400.97 72.23 401.24 75.29L413.28 7.01C413.71 4.58 414.83 2.81 416.65 1.68C418.46 0.56 420.41 0 422.48 0Z" fill="black"/>
<path d="M295 57.85C297.95 57.8 305.14 57.53 311.81 55.15C317.21 53.08 321.74 50 325.38 45.91C329.02 41.82 331.39 36.67 332.49 30.46L332.92 28.03C334.41 19.58 332.85 12.85 328.25 7.86C323.64 2.87 316.3 0.369995 306.23 0.369995H280.86C276.54 0.369995 273.41 1.17999 271.46 2.79999C269.51 4.41999 268.16 7.33999 267.42 11.57L253.63 89.7C253.17 92.31 253.69 94.2 255.2 95.37C256.7 96.54 258.62 97.12 260.96 97.12C263.3 97.12 265.43 96.54 267.34 95.37C269.25 94.2 270.44 92.31 270.9 89.7L276.49 57.99H292.01C292.46 57.99 292.95 57.99 293.49 57.99C294.03 57.98 294.54 57.94 295 57.85ZM315.71 28.43L315.4 30.18C314.62 34.59 312.64 37.92 309.45 40.17C306.26 42.42 301.39 43.54 294.82 43.54H279.03L284.1 14.8H301.37C307.22 14.8 311.27 15.95 313.52 18.24C315.77 20.54 316.5 23.93 315.71 28.43Z" fill="black"/>
<path d="M318.31 95.37L317.12 95.79C313.14 97.21 308.72 95.11 307.31 91.13L301.05 73.73C299.63 69.75 301.73 65.33 305.71 63.92L306.9 63.5C310.88 62.08 315.3 64.18 316.71 68.16L322.97 85.56C324.39 89.54 322.29 93.96 318.31 95.37Z" fill="#EB7D28"/>
<path d="M467.16 90.05C467.16 98.2 460.55 104.81 452.4 104.81C444.25 104.81 437.64 98.2 437.64 90.05C437.64 81.9 444.24 75.29 452.4 75.29C460.56 75.3 467.16 81.9 467.16 90.05Z" fill="#F57E21"/>
</svg>
