<svg width="118" height="27" viewBox="0 0 118 27" fill="none" xmlns="http://www.w3.org/2000/svg">
<path d="M6.09254 0C6.6836 0 7.16857 0.149028 7.54746 0.442032C7.92634 0.737563 8.05769 1.21496 7.9415 1.87422L4.61236 20.7578H14.4987C15.0216 20.7578 15.3752 20.9397 15.5621 21.3034C15.7465 21.6672 15.797 22.0991 15.7086 22.5992C15.6202 23.0994 15.4182 23.5313 15.1049 23.895C14.7892 24.2587 14.3724 24.4406 13.8496 24.4406H2.49818C1.407 24.4406 0.687114 24.236 0.338539 23.8268C-0.0100349 23.4176 -0.0883378 22.6801 0.0985788 21.6116L3.57927 1.87422C3.69546 1.21496 3.99604 0.737563 4.47849 0.442032C4.96346 0.149028 5.49895 0 6.09254 0Z" fill="black"/>
<path d="M37.4137 0.204599C37.9366 0.204599 38.2851 0.381412 38.4619 0.732512C38.6388 1.08614 38.6817 1.51049 38.5933 2.01062C38.5099 2.48801 38.3154 2.90984 38.0123 3.27104C37.7092 3.63477 37.2975 3.81664 36.7746 3.81664H26.5826L25.446 10.2577H30.1896C30.6898 10.2577 31.0282 10.4345 31.205 10.7856C31.3818 11.1392 31.4273 11.5535 31.344 12.0283C31.2606 12.5057 31.0686 12.92 30.7681 13.2736C30.4675 13.6272 30.0659 13.8015 29.5683 13.8015H24.8246L23.5869 20.8235H34.0164C34.5392 20.8235 34.8878 21.0054 35.0621 21.3691C35.2364 21.7328 35.2818 22.1521 35.1985 22.6295C35.1101 23.1297 34.9156 23.5565 34.615 23.9076C34.3144 24.2587 33.9027 24.4356 33.3798 24.4356H21.5182C20.427 24.4356 19.7071 24.231 19.3586 23.8218C19.01 23.4126 18.9317 22.675 19.1186 21.6065L22.3947 3.02855C22.5841 1.9601 22.9226 1.22254 23.4152 0.81334C23.9077 0.404145 24.6983 0.199547 25.7895 0.199547H37.4137V0.204599Z" fill="black"/>
<path d="M47.05 14.1804L45.1177 17.795L42.122 23.3848C41.7557 24.044 41.3061 24.4355 40.7731 24.5618C40.2402 24.6856 39.7173 24.6578 39.202 24.476C38.6893 24.2941 38.3458 23.9885 38.1715 23.5565C37.9972 23.1246 38.0906 22.5916 38.4544 21.9551L49.6391 2.01566C50.0735 1.22 50.5383 0.687036 51.0283 0.414239C51.5183 0.141442 52.0488 0.00504303 52.6171 0.00504303C53.2081 0.00504303 53.6956 0.141442 54.0796 0.414239C54.4635 0.687036 54.7439 1.22 54.9207 2.01566L59.1061 21.7808C59.24 22.4401 59.139 23.0084 58.8055 23.4858C58.4721 23.9632 58.0048 24.2916 57.4037 24.4734C56.8025 24.6553 56.2367 24.678 55.7037 24.5416C55.1708 24.4052 54.8449 23.9733 54.7212 23.2458L53.7057 17.7924L53.0465 14.1779L47.05 14.1804ZM53.049 14.1804L52.1473 9.23721C51.9907 8.44155 51.8795 7.75955 51.8088 7.19123C51.7381 6.6229 51.6648 6.04447 51.5865 5.45341C51.2834 6.1354 51.0005 6.74414 50.7378 7.27711C50.4726 7.8126 50.1367 8.46428 49.7275 9.23721L47.05 14.1804" fill="black"/>
<path d="M106.714 0C107.237 0 107.677 0.14145 108.038 0.426877C108.397 0.712304 108.523 1.15939 108.414 1.77318L104.903 21.6798C104.714 22.7483 104.375 23.4858 103.883 23.895C103.39 24.3042 102.6 24.5088 101.508 24.5088C101.099 24.5088 100.741 24.476 100.435 24.4052C100.129 24.337 99.8489 24.183 99.5963 23.9455C99.3437 23.7081 99.0962 23.3595 98.8587 22.9049C98.6213 22.4502 98.3536 21.8364 98.058 21.0635L93.6478 9.54285C93.4154 8.92906 93.2159 8.31526 93.0517 7.70147C92.8875 7.08767 92.7713 6.39558 92.7031 5.62265L89.6619 22.8695C89.5533 23.4833 89.2704 23.9329 88.8107 24.2158C88.351 24.4987 87.861 24.6427 87.3381 24.6427C86.8152 24.6427 86.3757 24.5012 86.0145 24.2158C85.6559 23.9329 85.5296 23.4833 85.6382 22.8695L89.1492 2.96288C89.3386 1.89442 89.6771 1.15686 90.1696 0.747666C90.6622 0.338471 91.4528 0.133873 92.544 0.133873C92.9532 0.133873 93.3093 0.166709 93.6175 0.234909C93.9231 0.303108 94.2035 0.457188 94.4561 0.694622C94.7087 0.932057 94.9537 1.28063 95.1937 1.73529C95.4311 2.18995 95.6988 2.80375 95.9944 3.57667L100.405 15.0973C100.637 15.7111 100.837 16.3249 101.001 16.9387C101.165 17.5525 101.281 18.2446 101.349 19.0175L104.39 1.77066C104.499 1.15686 104.782 0.709778 105.242 0.424351C105.699 0.14145 106.191 0 106.714 0Z" fill="black"/>
<path d="M74.5141 14.6123C75.2593 14.5997 77.0754 14.5315 78.7602 13.9303C80.1241 13.4075 81.2684 12.6295 82.1878 11.5964C83.1072 10.5633 83.7059 9.26248 83.9837 7.69389L84.0923 7.0801C84.4687 4.94571 84.0746 3.24578 82.9127 1.98536C81.7483 0.724935 79.8943 0.0934601 77.3507 0.0934601H70.9425C69.8513 0.0934601 69.0607 0.298058 68.5681 0.707254C68.0756 1.11645 67.7346 1.85401 67.5477 2.92247L64.0645 22.6573C63.9483 23.3166 64.0796 23.794 64.461 24.0895C64.8399 24.385 65.3249 24.5315 65.916 24.5315C66.507 24.5315 67.045 24.385 67.5275 24.0895C68.0099 23.794 68.3105 23.3166 68.4267 22.6573L69.8387 14.6477H73.7589C73.8725 14.6477 73.9963 14.6477 74.1327 14.6477C74.2691 14.6452 74.3979 14.6351 74.5141 14.6123ZM79.7453 7.18114L79.6669 7.62317C79.4699 8.73709 78.9698 9.57821 78.164 10.1465C77.3583 10.7149 76.1282 10.9978 74.4687 10.9978H70.4803L71.7609 3.73833H76.1231C77.6008 3.73833 78.6238 4.02881 79.1921 4.60724C79.7604 5.1882 79.9448 6.04448 79.7453 7.18114Z" fill="black"/>
<path d="M80.402 24.0895L80.1014 24.1956C79.0961 24.5543 77.9796 24.0238 77.6235 23.0185L76.0423 18.6235C75.6836 17.6182 76.214 16.5017 77.2193 16.1456L77.5199 16.0395C78.5252 15.6808 79.6417 16.2112 79.9978 17.2165L81.5791 21.6116C81.9377 22.6169 81.4073 23.7334 80.402 24.0895Z" fill="#EB7D28"/>
<path d="M118 22.7457C118 24.8043 116.33 26.4739 114.272 26.4739C112.213 26.4739 110.544 24.8043 110.544 22.7457C110.544 20.6871 112.211 19.0175 114.272 19.0175C116.333 19.02 118 20.6871 118 22.7457Z" fill="#F57E21"/>
</svg>
